<svg xmlns="http://www.w3.org/2000/svg" viewBox="0 0 64 64" role="img" aria-label="Denúncias Urbanas">
  <defs>
    <linearGradient id="bg" x1="12" y1="6" x2="52" y2="58" gradientUnits="userSpaceOnUse">
      <stop offset="0" stop-color="#232936"/>
      <stop offset="1" stop-color="#10141B"/>
    </linearGradient>
    <linearGradient id="pin" x1="20" y1="10" x2="44" y2="54" gradientUnits="userSpaceOnUse">
      <stop offset="0" stop-color="#FFD84D"/>
      <stop offset="1" stop-color="#FFC300"/>
    </linearGradient>
    <linearGradient id="city" x1="23" y1="24" x2="41" y2="42" gradientUnits="userSpaceOnUse">
      <stop offset="0" stop-color="#35D399"/>
      <stop offset="1" stop-color="#2563EB"/>
    </linearGradient>
    <filter id="shadow" x="-20%" y="-20%" width="140%" height="150%">
      <feDropShadow dx="0" dy="5" stdDeviation="4" flood-color="#000000" flood-opacity="0.35"/>
    </filter>
  </defs>

  <rect width="64" height="64" rx="16" fill="url(#bg)"/>
  <circle cx="48" cy="16" r="9" fill="#FFC300" opacity="0.14"/>
  <circle cx="15" cy="50" r="11" fill="#2563EB" opacity="0.13"/>

  <path filter="url(#shadow)" d="M32 7c-10.2 0-18.5 8.1-18.5 18.2 0 13.8 18.5 31.8 18.5 31.8s18.5-18 18.5-31.8C50.5 15.1 42.2 7 32 7Z" fill="url(#pin)"/>
  <circle cx="32" cy="25.5" r="11.5" fill="#14181F" opacity="0.95"/>

  <path d="M24 35.5V28l4-3 4 3v7.5h-8Z" fill="url(#city)"/>
  <path d="M33.5 35.5v-10l6.5 3.4v6.6h-6.5Z" fill="#2563EB"/>
  <path d="M28 35.5v-5h8v5h-8Z" fill="#FFC300"/>
  <path d="M27 24.5h3M34 27h3M36 30h2" stroke="#D7E0EA" stroke-width="1.4" stroke-linecap="round" opacity="0.9"/>

  <path d="M32 15.7v10.4" stroke="#FFC300" stroke-width="3" stroke-linecap="round"/>
  <circle cx="32" cy="31.2" r="1.8" fill="#FFC300"/>
</svg>
